<svg width="386" height="96" viewBox="0 0 386 96" fill="none" xmlns="http://www.w3.org/2000/svg">
<rect x="3.474" y="3.474" width="379.052" height="88.394" rx="44.197" stroke="white" stroke-width="6.948"/>
<path d="M76.428 63.304V32.231C76.428 31.8047 76.7736 31.459 77.2 31.459H85.499C85.9254 31.459 86.271 31.8047 86.271 32.231V56.935C86.271 57.3614 86.6166 57.707 87.043 57.707H107.098C107.598 57.707 107.967 58.175 107.849 58.6609L106.679 63.4859C106.595 63.8322 106.285 64.076 105.929 64.076H77.2C76.7736 64.076 76.428 63.7304 76.428 63.304Z" fill="white"/>
<path d="M118.888 63.304V32.231C118.888 31.8047 119.234 31.459 119.66 31.459H127.766C128.192 31.459 128.538 31.8047 128.538 32.231V63.304C128.538 63.7304 128.192 64.076 127.766 64.076H119.66C119.234 64.076 118.888 63.7304 118.888 63.304Z" fill="white"/>
<path d="M154.574 63.6443L139.313 32.5713C139.061 32.0584 139.435 31.459 140.006 31.459H148.881C149.186 31.459 149.462 31.638 149.586 31.916L160.064 55.3582C160.337 55.9675 161.201 55.9675 161.474 55.3582L171.952 31.916C172.076 31.638 172.352 31.459 172.657 31.459H181.319C181.895 31.459 182.268 32.0675 182.007 32.5811L166.195 63.6541C166.063 63.913 165.797 64.076 165.507 64.076H155.267C154.973 64.076 154.704 63.9086 154.574 63.6443Z" fill="white"/>
<path d="M201.492 31.459H193.386C192.96 31.459 192.614 31.8047 192.614 32.231V63.304C192.614 63.7304 192.96 64.076 193.386 64.076H201.492C201.918 64.076 202.264 63.7304 202.264 63.304V32.231C202.264 31.8047 201.918 31.459 201.492 31.459Z" fill="white"/>
<path d="M217.704 63.304V32.231C217.704 31.8047 218.05 31.459 218.476 31.459H228.535C228.765 31.459 228.983 31.5614 229.13 31.7384L245.288 51.2334C245.749 51.7902 246.654 51.4639 246.654 50.7408V32.231C246.654 31.8047 247 31.459 247.426 31.459H254.76C255.186 31.459 255.532 31.8047 255.532 32.231V63.304C255.532 63.7304 255.186 64.076 254.76 64.076H244.911C244.672 64.076 244.445 63.9646 244.299 63.7745L227.966 42.5238C227.517 41.9392 226.582 42.257 226.582 42.9943V63.304C226.582 63.7304 226.236 64.076 225.81 64.076H218.476C218.05 64.076 217.704 63.7304 217.704 63.304Z" fill="white"/>
<path d="M290.658 50.566V45.934C290.658 45.5077 291.004 45.162 291.43 45.162H308.607C309.033 45.162 309.379 45.5077 309.379 45.934V64.462C309.379 64.8884 309.033 65.234 308.607 65.234H302.817C302.391 65.234 302.045 64.8884 302.045 64.462V63.1733C302.045 62.5259 301.28 62.1462 300.724 62.4778C296.877 64.7727 291.692 65.234 290.658 65.234C269.235 65.234 269.042 49.601 269.042 48.057C269.042 30.687 289.693 30.494 290.658 30.494C304.422 30.9241 308.711 36.9351 309.305 40.5214C309.376 40.9477 309.026 41.302 308.594 41.302H300.423C300.225 41.302 300.033 41.2237 299.889 41.0883C295.975 37.4276 293.688 37.0524 290.658 36.863C280.815 36.477 279.078 44.583 279.078 48.057C279.464 57.321 289.114 58.479 290.658 58.479C298.585 57.9505 300.081 54.6349 300.135 52.0546C300.143 51.6502 299.802 51.338 299.397 51.338H291.43C291.004 51.338 290.658 50.9924 290.658 50.566Z" fill="white"/>
</svg>
